# xmcd
#
# Track frame offsets:
#	150
#	16475
#	33375
#	50766
#	74547
#	92055
#	106835
#	120695
#	142703
#	164609
#	181057
#	200541
#	221349
#	246100
#	264675
#
# Disc length: 3720 seconds
#
# Revision: 0
# Processed by: cddbd v1.5.1PL0 Copyright (c) Steve Scherf et al.
# Submitted via: audiograbber 1.83.01
#
DISCID=d50e860f
DTITLE=Various Artist - SC8897
DYEAR=1900
DGENRE=KARAOKE
TTITLE0=Shania and Billy Currington Twain - Party For Two (Radio Version)
TTITLE1=Gary Allan - Nothing On But The Radio
TTITLE2=Reba McEntire - He Gets That From Me
TTITLE3=Tim McGraw - Back When
TTITLE4=Tim McGraw - My Old Friend
TTITLE5=Gretchen Wilson - When It Rains
TTITLE6=Alan Jackson - To Do What I Do
TTITLE7=Kenny Chesney - Woman With You, The
TTITLE8=Tim McGraw - Drugs Or Jesus
TTITLE9=Jimmy and Toby Keith Buffett - Piece Of Work
TTITLE10=Cledus T. and Toby Keith Judd - I Love Nascar
TTITLE11=Big and Rich - Holy Water
TTITLE12=Gretchen Wilson - Pocahontas Proud
TTITLE13=Joe Diffie - If I Could Only Bring You Back
TTITLE14=LeAnn Rimes - Nothin' 'bout Love Makes Sense
EXTD=
EXTT0=
EXTT1=
EXTT2=
EXTT3=
EXTT4=
EXTT5=
EXTT6=
EXTT7=
EXTT8=
EXTT9=
EXTT10=
EXTT11=
EXTT12=
EXTT13=
EXTT14=
PLAYORDER=
